<svg xmlns="http://www.w3.org/2000/svg" width="22" height="19" viewBox="0 0 22 19"><g><g><path fill="#f5a918" d="M22 6.333v2.46c-.002.663-.884 1.183-2.2 1.572v2.3c0 .11-.025.214-.072.315.757.302 1.14.662 1.166 1.094h.006v2.461c-.003 1.172-2.749 1.897-5.8 2.236-.022.005-.043.015-.067.015-.007 0-.013-.005-.02-.005-.588.064-1.185.114-1.777.15-.012 0-.023.006-.036.006l-.019-.003c-.75.043-1.49.065-2.18.065-.692 0-1.431-.022-2.182-.065-.007 0-.012.003-.02.003-.012 0-.023-.005-.035-.006a37.7 37.7 0 0 1-1.777-.15c-.008.001-.013.005-.02.005-.024 0-.045-.01-.067-.014-3.051-.34-5.797-1.065-5.8-2.236v-2.462h.006a.753.753 0 0 1 .048-.219C.44 13.526.001 13.131 0 12.665v-2.462h.004C.039 9.61.759 9.148 2.2 8.792v-2.46h.005a.787.787 0 0 1 .033-.179C.901 5.764.002 5.241 0 4.574V2.111h.006C.138.06 8.894 0 9.9 0c1.006 0 9.763.061 9.894 2.11h.006v2.463a.774.774 0 0 1-.079.329c1.492.36 2.239.828 2.275 1.43zm-2.933 6.331v-1.456a5.567 5.567 0 0 1-1.1.485v1.677c.422-.159.742-.323.935-.486l.125-.106a.216.216 0 0 0 .04-.114zm-7.57 1.73c.08-.005.158-.01.237-.013v-1.756c-.368.016-.737.028-1.106.034h-.059c-.1.003-.201.004-.302.005v1.758l.398-.004.161-.004c.227-.004.45-.012.67-.02zm-2.177.026l.213.003v-1.759c-.1 0-.201-.002-.302-.005h-.058a39.52 39.52 0 0 1-1.106-.034v1.756a33.361 33.361 0 0 0 1.158.038l.095.001zm-6.583-.767c.282.074.593.147.93.215V12.15c-.39-.072-.758-.153-1.1-.243v1.7l.035.01.135.036zm7.536 2.877c-.37-.006-.739-.018-1.106-.033v1.756c.47.022.96.036 1.466.04v-1.758c-.1 0-.201-.002-.302-.005h-.058zm1.396 0l-.302.005v1.758c.507-.005.996-.02 1.466-.04v-1.756c-.367.015-.736.026-1.106.033h-.058zm1.898-.075v1.756c.38-.027.747-.057 1.1-.092V16.37c-.361.033-.728.06-1.1.084zm1.833 1.58c.388-.05.755-.103 1.1-.161v-1.73c-.355.057-.722.106-1.1.15zm1.833-.297c.406-.084.774-.17 1.1-.26v-1.7c-.342.088-.71.17-1.1.242zm-13.566-1.96v1.7c.326.09.694.176 1.1.26V16.02c-.39-.073-.758-.154-1.1-.243zM5.5 17.873c.346.059.712.112 1.1.162v-1.741a26.463 26.463 0 0 1-1.1-.15zm1.833.245c.353.035.72.065 1.1.092v-1.756c-.371-.023-.739-.05-1.1-.084zm0-3.78v-1.753c-.371-.024-.739-.051-1.1-.086v1.747l.08.008.11.011c.298.029.602.052.91.073zM4.4 12.275v1.728c.345.059.712.113 1.1.162v-1.74a28.503 28.503 0 0 1-1.1-.15zm8.47 2.037c.238-.02.47-.043.697-.065V12.5c-.361.035-.729.062-1.1.085v1.755l.244-.017c.053-.004.106-.009.16-.011zm2.53-.309v-1.728c-.355.054-.722.106-1.1.15v1.74c.388-.049.754-.103 1.1-.162zm.733-.136c.406-.082.774-.169 1.1-.26v-1.7c-.342.09-.71.169-1.1.243zM11.2 10.544c.174.004.354.004.533.006V8.794l-.303-.004c-.019-.002-.038-.002-.057-.002-.37-.005-.739-.017-1.106-.034v1.757l.042.003c.265.011.534.02.81.028l.081.002zM2.964 5.62c.182.046.372.087.567.129.044.01.09.017.136.027V4.057a17.25 17.25 0 0 1-1.1-.242v1.699c.127.035.258.07.397.105zm6.209-1.052c-.37-.005-.739-.018-1.106-.034v1.755c.482.024.973.035 1.466.04V4.571l-.302-.004-.058-.001zm1.396 0c-.1.003-.202.004-.302.005v1.757l.396-.004.119-.003c.254-.006.505-.013.75-.023h.016l.185-.011V4.533c-.367.015-.736.026-1.106.034h-.058zm8.498.004V3.115a5.503 5.503 0 0 1-1.1.484v1.674c.381-.141.679-.287.872-.432l.134-.1.01.001c.054-.06.084-.117.084-.171zM15.4 5.908V4.183c-.355.054-.722.104-1.1.148V6.07c.386-.048.753-.102 1.1-.16zm1.833-.398V3.815c-.342.088-.71.169-1.1.242v1.715c.402-.082.772-.17 1.1-.262zm-4.766-1.017v1.752a32.93 32.93 0 0 0 1.1-.092V4.407c-.361.034-.729.063-1.1.086zm-5.134 1.75v-1.75c-.371-.023-.739-.052-1.1-.086v1.746c.359.036.727.066 1.1.09zM4.4 4.184v1.728l.12.02c.203.033.41.064.622.093l.138.019c.072.01.147.018.22.027V4.33a29.743 29.743 0 0 1-1.1-.147zm5.133 6.287V8.716a34.884 34.884 0 0 1-1.1-.087v1.748l.03.002c.047.006.095.01.143.015.224.022.453.04.688.059.05.005.099.007.148.01l.091.007zm-2.488-.265c.21.03.43.06.655.09v-1.74a29.728 29.728 0 0 1-1.1-.15v1.726c.138.023.275.047.42.069l.025.005zM4.767 8.037v1.692c.327.093.695.182 1.1.265V8.28c-.39-.074-.758-.155-1.1-.243zm-1.834-.7v1.457c0 .012.004.023.007.033l.024.04c.121.193.493.413 1.07.626V7.821a5.531 5.531 0 0 1-1.1-.484zM12.77 8.79l-.302.004v1.756c.495-.005.984-.017 1.466-.04V8.754c-.367.017-.736.029-1.105.034-.02 0-.04 0-.059.002zm4.831 1.342V8.405c-.355.055-.722.105-1.1.149v1.738l.284-.035.292-.041c.167-.023.329-.05.49-.077l.034-.007zm-2.478.303c.22-.016.432-.038.645-.058V8.629c-.361.035-.729.063-1.1.087v1.751c.138-.01.28-.017.416-.028.013 0 .026-.003.04-.004zm4.312-.699v-1.7a17.6 17.6 0 0 1-1.1.244v1.717c.028-.007.058-.011.087-.018.095-.019.188-.04.28-.06.197-.046.39-.091.572-.139l.16-.044zm-.287-4.242l-.073.042c-.04.026-.085.05-.129.074-.038.021-.074.042-.115.063-.09.048-.189.092-.29.137l-.083.034a8.457 8.457 0 0 1-.299.116l-.063.024c-.122.043-.25.085-.382.127-.046.012-.093.026-.14.04-.076.02-.153.044-.233.065-1.718.472-4.187.775-6.851.815a34.421 34.421 0 0 1-1.417-.005 39.36 39.36 0 0 1-1.365-.053H7.7l-.014-.001a35.167 35.167 0 0 1-1.818-.15h-.001l-.008-.002a25.829 25.829 0 0 1-2.836-.462c-.026-.007-.053-.012-.078-.017-.005.008-.005.014-.006.02.041.238.604.553 1.604.85 1.296.384 3.327.736 5.9.844a21.738 21.738 0 0 0 .728.025 41.212 41.212 0 0 0 1.858.001c.112-.003.222-.005.332-.01.134-.004.265-.01.397-.015 2.572-.11 4.602-.46 5.9-.845 1.007-.298 1.571-.616 1.605-.856-.042-.144-.475-.519-2.116-.861zM.739 2.14c.044.238.607.552 1.604.847 1.297.385 3.327.737 5.9.846.13.006.262.01.397.015l.331.01a41.027 41.027 0 0 0 1.858 0l.332-.01.397-.015c2.572-.11 4.602-.461 5.9-.846.996-.295 1.559-.61 1.603-.847C19.004 1.617 15.946.703 9.9.703 3.854.703.796 1.617.739 2.14zm1.094 3.143V3.6a5.499 5.499 0 0 1-1.1-.484v1.458c.001.198.387.454 1.1.711zm-1.096 4.94c.033.24.597.558 1.606.857 1.297.384 3.327.737 5.9.846a41.862 41.862 0 0 0 1.657.035c.238 0 .47-.002.701-.006l.273-.005.247-.009c2.78-.086 4.967-.455 6.336-.86a6.753 6.753 0 0 0 1.085-.408c-1.23.255-2.683.433-4.233.521l-.009.001h-.005a39.448 39.448 0 0 1-4.394 0h-.004c-1.545-.087-2.964-.263-4.153-.506l-.288-.06c-.03-.005-.062-.013-.092-.019-1.294-.285-2.333-.667-2.835-1.153-.005-.006-.014-.011-.02-.017-1.36.321-1.73.652-1.772.783zm.883 3.07l.004-.003.21.079v-1.677a5.629 5.629 0 0 1-1.1-.486v1.458c0 .177.31.402.886.63zm1.313 3.953v-1.685a5.434 5.434 0 0 1-1.1-.484v1.457c.001.199.387.455 1.1.712zm17.234-.712v-1.457a5.44 5.44 0 0 1-1.1.484v1.685c.713-.258 1.1-.515 1.1-.712zm-.952-2.992l-.108.065c-.038.025-.077.047-.118.07-.033.02-.066.038-.101.057-.643.342-1.58.618-2.663.832l-.077.015-.35.064c-.573.103-1.19.192-1.842.264-.008 0-.014.006-.022.006l-.007-.002c-.584.063-1.193.115-1.822.152H12.1h-.003a36.347 36.347 0 0 1-2.66.059 37.483 37.483 0 0 1-1.736-.06h-.003c-1.84-.104-3.545-.337-4.88-.664-.06-.017-.12-.03-.18-.045l-.118-.031a11.367 11.367 0 0 1-.304-.086c-.012-.002-.023-.006-.035-.01-.116-.033-.23-.07-.339-.106.07.236.63.54 1.6.828 1.298.385 3.328.736 5.9.847a42.95 42.95 0 0 0 1.658.035c.317 0 .626-.004.93-.01.11-.005.22-.007.33-.01l.398-.015c2.572-.11 4.602-.461 5.9-.846 1-.298 1.564-.613 1.604-.85-.024-.089-.223-.31-.947-.559zm2.052-4.75V7.338a5.568 5.568 0 0 1-1.1.485v1.684c.713-.256 1.1-.513 1.1-.712z"/></g></g></svg>