<svg xmlns="http://www.w3.org/2000/svg" width="33.78" height="33.91" viewBox="0 0 33.78 33.91">
  <defs>
    <style>
      .cls-1 {
        fill: #fff;
        fill-rule: evenodd;
      }
    </style>
  </defs>
  <path class="cls-1" d="M1288.85,8019.09a3.333,3.333,0,0,0-2.41-1.11,3.437,3.437,0,0,0-2.44,1.1l-2.26,2.26c-0.18-.1-0.37-0.19-0.55-0.29a7.375,7.375,0,0,1-.7-0.38,24.269,24.269,0,0,1-5.88-5.37,14.7,14.7,0,0,1-1.93-3.05c0.59-.53,1.13-1.09,1.66-1.63,0.2-.2.4-0.41,0.6-0.61a3.285,3.285,0,0,0,0-4.95l-1.95-1.96c-0.22-.22-0.45-0.45-0.67-0.68-0.42-.44-0.87-0.9-1.34-1.33a3.4,3.4,0,0,0-2.39-1.05,3.54,3.54,0,0,0-2.43,1.05,0.02,0.02,0,0,1-.01.02l-2.43,2.45a5.319,5.319,0,0,0-1.55,3.33,12.437,12.437,0,0,0,.92,5.31,30.678,30.678,0,0,0,5.46,9.14,33.528,33.528,0,0,0,11.19,8.78,17.414,17.414,0,0,0,6.28,1.87c0.15,0,.31.01,0.45,0.01a5.354,5.354,0,0,0,4.12-1.78l0.03-.03a16.789,16.789,0,0,1,1.25-1.3c0.3-.29.62-0.6,0.92-0.92a3.577,3.577,0,0,0,1.08-2.48,3.424,3.424,0,0,0-1.1-2.45Zm2.56,7.54c-0.01,0-.01.01,0,0-0.28.3-.56,0.57-0.87,0.87a17.229,17.229,0,0,0-1.38,1.44,3.436,3.436,0,0,1-2.68,1.13h-0.33a15.531,15.531,0,0,1-5.57-1.68,31.713,31.713,0,0,1-10.54-8.27,29.137,29.137,0,0,1-5.14-8.59,10.107,10.107,0,0,1-.8-4.48,3.307,3.307,0,0,1,.98-2.13l2.44-2.44a1.618,1.618,0,0,1,1.08-.51,1.543,1.543,0,0,1,1.05.5,0.053,0.053,0,0,0,.02.03c0.43,0.4.85,0.83,1.28,1.28,0.22,0.23.45,0.46,0.68,0.69l1.95,1.96a1.366,1.366,0,0,1,0,2.22c-0.21.2-.41,0.41-0.61,0.61-0.6.62-1.17,1.19-1.8,1.75l-0.03.03a1.457,1.457,0,0,0-.37,1.63,0.142,0.142,0,0,0,.02.06,15.888,15.888,0,0,0,2.31,3.78h0a26.1,26.1,0,0,0,6.34,5.79c0.3,0.18.6,0.34,0.88,0.48,0.26,0.13.5,0.25,0.71,0.38a0.351,0.351,0,0,1,.08.05,1.589,1.589,0,0,0,.71.18,1.571,1.571,0,0,0,1.09-.5l2.44-2.45a1.62,1.62,0,0,1,1.08-.53,1.447,1.447,0,0,1,1.02.52,0.02,0.02,0,0,0,.02.01l3.93,3.95A1.413,1.413,0,0,1,1291.41,8026.63Zm-11.01-20.48a9.034,9.034,0,0,1,4.93,2.56,9.145,9.145,0,0,1,2.55,4.94,1,1,0,0,0,1.12.79,0.981,0.981,0,0,0,.79-1.12,11.122,11.122,0,0,0-9.05-9.08,0.981,0.981,0,0,0-1.12.79A0.964,0.964,0,0,0,1280.4,8006.15Zm15.51,6.89a18.334,18.334,0,0,0-14.91-14.95,0.974,0.974,0,0,0-1.11.79,0.987,0.987,0,0,0,.79,1.12,16.365,16.365,0,0,1,13.33,13.36,0.956,0.956,0,0,0,.95.8,1,1,0,0,0,.16-0.02A0.949,0.949,0,0,0,1295.91,8013.04Z" transform="translate(-1262.13 -7998.09)"/>
</svg>
