<svg xmlns="http://www.w3.org/2000/svg" width="42.688" height="26.59" viewBox="0 0 42.688 26.59">
  <defs>
    <style>
      .cls-1 {
        fill: #fff;
        fill-rule: evenodd;
      }
    </style>
  </defs>
  <path id="Shape_1_copy_3" data-name="Shape 1 copy 3" class="cls-1" d="M877.63,8039.38h24a1.04,1.04,0,1,0,0-2.08h-24A1.04,1.04,0,1,0,877.63,8039.38Zm0,14.71h24a1.04,1.04,0,1,0,0-2.08h-24A1.04,1.04,0,1,0,877.63,8054.09Zm-8.144-21.69h-6.681a2.76,2.76,0,0,0-2.8,2.71v6.47a2.76,2.76,0,0,0,2.8,2.71h6.681a2.76,2.76,0,0,0,2.8-2.71v-6.47A2.76,2.76,0,0,0,869.486,8032.4Zm0.662,9.18a0.653,0.653,0,0,1-.662.64h-6.681a0.653,0.653,0,0,1-.662-0.64v-6.47a0.647,0.647,0,0,1,.662-0.64h6.681a0.647,0.647,0,0,1,.662.64v6.47ZM860,8056.29a2.76,2.76,0,0,0,2.8,2.71h6.681a2.761,2.761,0,0,0,2.8-2.71v-6.47a2.761,2.761,0,0,0-2.8-2.71h-6.672a2.76,2.76,0,0,0-2.8,2.71v6.47H860Zm2.134-6.48a0.653,0.653,0,0,1,.662-0.64h6.681a0.653,0.653,0,0,1,.662.64v6.47a0.647,0.647,0,0,1-.662.64h-6.672a0.647,0.647,0,0,1-.662-0.64v-6.47h-0.009Z" transform="translate(-860 -8032.41)"/>
</svg>
