<svg xmlns="http://www.w3.org/2000/svg" width="40" height="35.97" viewBox="0 0 40 35.97">
  <defs>
    <style>
      .cls-1 {
        fill: #fff;
        fill-rule: evenodd;
      }
    </style>
  </defs>
  <path id="Forma_1" data-name="Forma 1" class="cls-1" d="M1692.45,8050.46l-2.23-2.31a0.645,0.645,0,0,0-.86-0.07l-9.75,7.28-3.45-1.65,3.03-.34a0.671,0.671,0,0,0,.58-0.67v-2.89a0.668,0.668,0,0,0-.66-0.67h-3.3l-5.56-.58a0.646,0.646,0,0,0-.33.06l-3.79,1.64H1659v1.34h7.27a0.857,0.857,0,0,0,.27-0.05l3.75-1.67,5.42,0.56h2.77v1.66l-2.45.31-3.54-.38a0.671,0.671,0,0,0-.35,1.27l7.32,3.41a0.653,0.653,0,0,0,.66-0.06l9.59-7.15,1.32,1.39-11.02,9.77h-2.99l-10.53-3.97a0.587,0.587,0,0,0-.23-0.04H1659v1.33h7.15l10.52,3.98a0.587,0.587,0,0,0,.23.04h3.35a0.656,0.656,0,0,0,.44-0.17l11.73-10.4,0.03-.03A0.664,0.664,0,0,0,1692.45,8050.46Zm1.76-7.69-3.49-3.68a0.62,0.62,0,0,0-.42-0.2l-7.13-.67h-2.71l0.13-2.01,2.58-.53,3.6,0.82a0.885,0.885,0,0,0,.23,0l3.5-.42-0.16-1.34-3.39.37-3.63-.82a0.615,0.615,0,0,0-.27,0l-3.22.67a0.67,0.67,0,0,0-.53.61l-0.21,3.26v0.04a0.662,0.662,0,0,0,.66.67h3.36l6.83,0.63,3.51,3.73a0.661,0.661,0,0,0,.47.21h4.68v-1.34h-4.39Zm-1.15-13.93a0.582,0.582,0,0,0-.25-0.12l-11.22-2.68a0.654,0.654,0,0,0-.54.13l-7.26,5.35,0.78,1.08,7.01-5.17,10.79,2.57,5.82,4.6,0.81-1.08Zm-10.72,1.29a0.637,0.637,0,0,0-.54,0l-3.96,2.01,0.6,1.19,3.69-1.87,3.02,1.25,0.49-1.24Zm-6.82,7.41-1.16-.17a0.78,0.78,0,0,1-.84-0.62,0.921,0.921,0,0,1,1.08-.64h0.48a0.976,0.976,0,0,1,1.08.64v0.18h1.32v-0.18a2.2,2.2,0,0,0-2.4-2.01h-0.48a2.2,2.2,0,0,0-2.4,2.01,2.129,2.129,0,0,0,1.98,1.91l1.14,0.17a0.805,0.805,0,0,1,.84.62,0.976,0.976,0,0,1-1.08.64h-0.48a0.976,0.976,0,0,1-1.08-.64v-0.18h-1.32v0.18a2.213,2.213,0,0,0,2.4,1.98h0.48a2.232,2.232,0,0,0,2.42-1.94A2.125,2.125,0,0,0,1675.52,8037.54Zm4.55,1.25a5.336,5.336,0,0,1-3.03,4.15,5.241,5.241,0,0,1-7-2.63,5.389,5.389,0,0,1,2.6-7.1,5.261,5.261,0,0,1,7,2.63l1.19-.56a6.683,6.683,0,1,0,.56,3.69Zm-5.89-4.72h1.32v1.34h-1.32v-1.34Z" transform="translate(-1659 -8026.03)"/>
</svg>
