<svg xmlns="http://www.w3.org/2000/svg" width="21" height="24" viewBox="0 0 21 24"><g><g><path fill="#b62e60" d="M19.604 18.154c.427.56.612 1.184.539 1.804-.073.615-.394 1.178-.932 1.634a17.44 17.44 0 0 1-.702.562c-.34.265-.663.513-.95.793-.006.012-.017.016-.022.025-.83.732-1.814 1.023-2.926.881-.096-.01-.202-.031-.302-.047-1.64-.318-3.042-1.15-4.085-1.834-2.727-1.82-5.021-4.199-6.821-7.076C1.92 12.511.995 10.35.473 8.07.26 7.14.007 5.733.295 4.292a3.683 3.683 0 0 1 1.32-2.185L3.455.605l.011-.01c.539-.416 1.137-.6 1.725-.525.587.074 1.116.4 1.526.94.278.337.544.695.796 1.043.126.179.26.356.392.53L9.058 4.11c.887 1.171.726 2.528-.41 3.447-.15.122-.302.25-.454.372-.401.33-.813.672-1.252.994.214.71.54 1.428 1.048 2.288 1.055 1.74 2.206 3.125 3.52 4.24.13.113.283.217.446.33.113.077.23.16.347.246l1.708-1.376c.547-.446 1.146-.633 1.738-.56.598.076 1.13.418 1.537.98zm-1.036.824l-2.328-3.087c-.005-.002-.005-.002-.009-.007-.13-.19-.352-.415-.65-.456-.304-.033-.588.137-.772.284l-1.85 1.497c-.091.074-.372.304-.772.252a1.027 1.027 0 0 1-.462-.187c-.018-.01-.036-.03-.054-.041a5.772 5.772 0 0 0-.445-.323 7.414 7.414 0 0 1-.553-.41c-1.426-1.208-2.67-2.707-3.799-4.575l-.004-.005c-.618-1.053-1.004-1.922-1.244-2.822l-.01-.047c-.052-.295-.08-.725.385-1.103.006-.01.017-.013.028-.018.465-.336.897-.69 1.353-1.063.156-.12.308-.25.465-.38.573-.46.63-.95.183-1.543L6.876 3.42c-.134-.184-.27-.364-.4-.544a22.244 22.244 0 0 0-.76-1c-.005-.01-.01-.012-.013-.019-.136-.18-.359-.401-.662-.44-.246-.03-.51.06-.774.262L2.423 3.17c-.45.362-.723.82-.84 1.398-.181.904-.132 1.887.169 3.19.486 2.126 1.36 4.158 2.758 6.418 1.698 2.707 3.861 4.952 6.426 6.663.938.621 2.199 1.366 3.618 1.643.071.015.149.023.22.034.752.093 1.355-.084 1.906-.565.341-.326.698-.607 1.048-.877.232-.181.447-.35.66-.534-.006.005-.006 0 0 0 .553-.466.615-.988.18-1.56z"/></g></g></svg>