<svg xmlns="http://www.w3.org/2000/svg" width="30" height="35" viewBox="0 0 30 35"><g><g><path fill="#fff" d="M2.85 9.038a3.395 3.395 0 0 1-.312-1.42c0-1.871 1.502-3.39 3.356-3.39.837 0 1.6.313 2.188.824A16.31 16.31 0 0 0 2.85 9.038zM0 19.848a15.18 15.18 0 0 1 3.561-9.797 15.06 15.06 0 0 1 5.295-4.024 14.807 14.807 0 0 1 3.606-1.11V2.078H11.16c-.43 0-.78-.466-.78-1.038 0-.575.35-1.04.78-1.04h7.678c.431 0 .78.465.78 1.04 0 .572-.349 1.038-.78 1.038h-1.3v2.84C24.614 6.136 30 12.354 30 19.847 30 28.217 23.285 35 15 35 6.716 35 0 28.216 0 19.848zm2.545 0c0 6.938 5.588 12.582 12.456 12.582 6.868 0 12.456-5.644 12.456-12.581 0-6.938-5.588-12.582-12.456-12.582-2.162 0-4.196.562-5.969 1.545a12.6 12.6 0 0 0-6.487 11.037zm1.805 0a10.777 10.777 0 0 1 5.573-9.461 10.525 10.525 0 0 1 5.761-1.275 10.491 10.491 0 0 1 5.271 1.815 10.778 10.778 0 0 1 4.696 8.921 10.774 10.774 0 0 1-5.574 9.46A10.545 10.545 0 0 1 15 30.605a10.526 10.526 0 0 1-5.955-1.836 10.78 10.78 0 0 1-4.696-8.921zm2.629 2.614L15 19.348v-8.06c-5.558 0-9.441 5.587-8.021 11.174z"/></g></g></svg>